<?xml version="1.0" standalone="no"?>
<!DOCTYPE svg PUBLIC "-//W3C//DTD SVG 1.1//EN" "http://www.w3.org/Graphics/SVG/1.1/DTD/svg11.dtd" >
<svg xmlns="http://www.w3.org/2000/svg">
<metadata></metadata>
<defs>
<font id="russianregular" horiz-adv-x="970" >
<font-face units-per-em="2048" ascent="1638" descent="-410" />
<missing-glyph horiz-adv-x="360" />
<glyph horiz-adv-x="2048" />
<glyph horiz-adv-x="2048" />
<glyph unicode="&#xd;" horiz-adv-x="2048" />
<glyph unicode=" "  horiz-adv-x="360" />
<glyph unicode="&#x09;" horiz-adv-x="360" />
<glyph unicode="&#xa0;" horiz-adv-x="360" />
<glyph unicode="0" d="M57 168q0 -70 52 -121q27 -29 56.5 -39t63.5 -10h256v-8h285v10q59 8 102 57q39 48 39 111v1372q0 72 -49 121q-49 51 -121 51h-512q-72 0 -120 -51q-51 -51 -52 -121v-1372zM342 283v1142h285v-1142h-285z" />
<glyph unicode="1" d="M57 6h854v287h-284v1137v288h-570v-288h285v-1137h-285v-287z" />
<glyph unicode="2" d="M57 137q0 -61 43 -100q39 -43 101 -43h569q57 0 100 43q41 41 41 100v428h-284v-282h-285v442h256h313v410v430q0 59 -41 100t-100 41h-569q-61 0 -101 -41q-43 -41 -43 -100v-144l285 -2h285v-284v-158h-570v-840z" />
<glyph unicode="3" d="M57 137q0 -61 43 -100q39 -43 101 -43h569q57 0 100 43q41 41 41 100v1428q0 59 -41 100t-100 41h-569q-61 0 -101 -41q-43 -41 -43 -100v-430h285v284h285v-442h-256v-252h256v-442h-285v282h-285v-428z" />
<glyph unicode="4" d="M55 711h158h127h303v-719h270v1718h-288v-219v-496h-285v715h-285v-999z" />
<glyph unicode="5" d="M57 137q0 -61 43 -100q39 -43 101 -43h569q57 0 100 43q41 41 41 100v840h-569v158v284h285l284 2v144q0 59 -41 100t-100 41h-569q-61 0 -101 -41q-43 -41 -43 -100v-430v-410h314h256v-442h-285v282h-285v-428z" />
<glyph unicode="6" d="M57 143q0 -61 43 -100q39 -41 101 -41h569q59 0 100 41t41 100v715q0 55 -41 100q-45 41 -100 41h-428v426h285v-284h284v571h-710q-61 0 -101 -41q-43 -41 -43 -100v-1428zM342 289v426h285v-426h-285z" />
<glyph unicode="7" d="M57 1141h285v284h285v-1423h284v1710h-854v-571z" />
<glyph unicode="8" d="M55 520h2v-383q0 -61 43 -100q39 -43 101 -43h569q57 0 100 43q41 41 41 100v551v289v444v144q0 59 -41 100t-100 41h-569q-61 0 -101 -41q-43 -41 -43 -100v-430v-172h-2v-443zM328 565v160h43h254v-37h2v-405h-295v282h-4zM342 977v158v284h283v-442h-283z" />
<glyph unicode="9" d="M57 2h713q59 0 100 41t41 100v1428q0 59 -41 100t-100 41h-569q-61 0 -101 -41q-43 -41 -43 -100v-713q0 -59 43 -102q41 -41 101 -41h426v-426h-285v284h-285v-571zM342 999v426h285v-426h-285z" />
<glyph unicode="A" d="M55 -6h285v180h303v-180h270v1716h-288h-318l-252 -1251v-465zM340 459l190 1034h95v-1034h-285z" />
<glyph unicode="B" d="M57 6h713q57 0 100 43q41 42 41 101v724q-8 57 -34 101q-29 37 -84 37h-455v436h512h57v270h-57h-793v-1712zM342 293v428h285v-428h-285z" />
<glyph unicode="C" d="M57 139q0 -59 43 -102q41 -41 101 -41h569q55 0 100 41q41 45 41 102v428h-284v-284h-285v1138h285v-284h284v430q0 55 -41 100q-45 41 -100 41h-569q-59 0 -101 -41q-43 -43 -43 -100v-1428z" />
<glyph unicode="D" d="M61 -4h631q115 37 146 72q34 34 71 147v1270q-29 115 -61 157q-35 41 -141 66h-646v-1712zM346 283v1138h283v-1138h-283z" />
<glyph unicode="E" d="M57 139q0 -59 43 -102q41 -41 101 -41h569q55 0 100 41q41 45 41 102v428h-284v-284h-285v444h473v250h-473v444h285v-284h284v430q0 55 -41 100q-45 41 -100 41h-569q-59 0 -101 -41q-43 -43 -43 -100v-1428z" />
<glyph unicode="F" d="M57 -4h285v287v444h559v250h-559v444h285v-284h284v430q0 55 -41 100q-45 41 -100 41h-569q-59 0 -101 -41q-43 -43 -43 -100v-1571z" />
<glyph unicode="G" d="M57 2h713q59 0 100 41t41 100v1428q0 59 -41 100t-100 41h-569q-61 0 -101 -41q-43 -41 -43 -100v-713q0 -59 43 -102q41 -41 101 -41h426v-426h-285v284h-285v-571zM342 999v426h285v-426h-285z" />
<glyph unicode="H" d="M57 2h285v713h285v-713h284v1710h-284v-713h-285v713h-285v-1710z" />
<glyph unicode="I" d="M57 2h854v287h-284v1136h284v287h-854v-287h285v-1136h-285v-287z" />
<glyph unicode="J" d="M57 143q0 -61 43 -100q39 -41 101 -41h569q59 0 100 41t41 100v1141v428h-284v-1423h-285v284h-285v-430z" />
<glyph unicode="K" d="M94 2h285v1710h-285v-1710zM383 836l281 -834h284l-299 823l314 883h-277z" />
<glyph unicode="L" d="M57 2h854v571h-284v-284h-285v1423h-285v-1710z" />
<glyph unicode="M" d="M57 -4h285v856l143 -143l142 143v-856h284v1569q0 59 -41 100q-43 43 -100 43h-143l-142 -571l-143 571h-141q-61 0 -101 -43q-43 -41 -43 -100v-1569z" />
<glyph unicode="N" d="M57 -4h285v747l281 -747h288v1569q0 59 -41 100q-43 43 -100 43h-137v-903l-291 903h-141q-61 0 -101 -43q-43 -41 -43 -100v-1569z" />
<glyph unicode="O" d="M57 168q0 -70 52 -121q27 -29 56.5 -39t63.5 -10h256v-8h285v10q59 8 102 57q39 48 39 111v1372q0 72 -49 121q-49 51 -121 51h-512q-72 0 -120 -51q-51 -51 -52 -121v-1372zM342 283v1142h285v-1142h-285z" />
<glyph unicode="P" d="M57 -4h285v713h428q57 0 100 43q41 41 41 100v713q0 59 -41 100q-43 43 -100 43h-713v-1712zM342 993v428h285v-428h-285z" />
<glyph unicode="Q" d="M57 168q0 -70 52 -121q49 -49 120 -49h256l107 -287h285l-107 289q59 8 102 57q39 48 39 111v1372q0 72 -49 121q-49 51 -121 51h-512q-72 0 -120 -51q-51 -51 -52 -121v-1372zM342 283v1142h285v-1142h-285z" />
<glyph unicode="R" d="M57 -4h285v713h82l268 -713h285l-285 713h78q57 0 100 43q41 41 41 100v713q0 59 -41 100q-43 43 -100 43h-713v-1712zM342 993v428h285v-428h-285z" />
<glyph unicode="S" d="M57 0h854v287l-514 1138h230v-284h284v571h-854v-287l527 -1138h-242v284h-285v-571z" />
<glyph unicode="T" d="M57 1176h285v249h135v-1425h285l2 1425l203 5v282h-910v-536z" />
<glyph unicode="U" d="M57 143q0 -59 43 -102q41 -41 101 -41h569q53 0 98 39q43 39 43 96v1577h-284v-1425h-285v1425h-285v-1569z" />
<glyph unicode="V" d="M57 1712l285 -1712h285l284 1712h-284l-142 -1141l-143 1141h-285z" />
<glyph unicode="W" d="M57 0h285l143 571l142 -571h284v1712h-284v-962l-142 249l-143 -249v962h-285v-1712z" />
<glyph unicode="X" d="M68 114q-1 -5 -1 -10q0 -10 3 -20q8 -33 29.5 -50.5t52.5 -31.5q16 -6 38 -8l21 -2h98l37 94l139 367l140 -367l37 -94h98l22 2q21 2 37 8q31 14 52.5 31.5t27.5 50.5q3 9 3 20q0 5 -1 10l-2 17v33l-53 131l-174 448l-31 117l31 101l223 569l4 14v31l2 21q1 7 1 14 q0 13 -3 24q-8 33 -28.5 50.5t-51.5 29.5q-16 8 -37 10l-22 2l-68 -6l-67 -100l-140 -365l-139 365l-37 94h-98l-21 2q-22 2 -38 -2q-63 -14 -82 -80q-3 -11 -3 -24q0 -7 1 -14l2 -21v-31l8 -18l186 -565l39 -99l-29 -129l-196 -551l-8 -18v-33z" />
<glyph unicode="Y" d="M55 727h588v-436h-567v-285h649h29q4 0 25.5 4t54.5 16.5t49 32.5q10 14 17 38t10 39.5t3 17.5v1564h-284v-714h-283v714h-291v-991z" />
<glyph unicode="Z" d="M57 6h854v572h-284v-285h-252l536 1137v288h-854v-571h285v283h254l-539 -1137v-287z" />
<glyph unicode="a" d="M55 -6v1716h291h318l249 -1251v-465h-284v180h-303v-180h-271zM346 459h283l-189 1034h-94v-1034z" />
<glyph unicode="b" d="M57 6h713q57 0 100 43q41 41 41 101v724q-8 57 -34 101q-29 37 -84 37h-19q0 119 1 222t1 181t1 123l1 45q0 2 -2 19.5t-9 43t-21.5 40t-41 21.5t-45 9t-20.5 2h-582v-1712zM338 1012v436h174v-436h-174zM342 293v428h285v-428h-285z" />
<glyph unicode="c" d="M57 139q0 -59 43 -102q41 -41 101 -41h569q55 0 100 41q41 45 41 102v428h-284v-284h-285v1138h285v-284h284v430q0 55 -41 100q-45 41 -100 41h-569q-59 0 -101 -41q-43 -43 -43 -100v-1428z" />
<glyph unicode="d" d="M61 -4h631q115 37 146 72q34 34 71 147v1270q-29 115 -61 157q-35 41 -141 66h-646v-1712zM346 283v1138h283v-1138h-283z" />
<glyph unicode="e" d="M57 139q0 -59 43 -102q41 -41 101 -41h569q55 0 100 41q41 45 41 102v428h-284v-284h-285v444h256v250h-256v444h285v-284h284v430q0 55 -41 100q-45 41 -100 41h-569q-59 0 -101 -41q-43 -43 -43 -100v-1428z" />
<glyph unicode="f" d="M57 -4h285v287v444h559v250h-559v444h285v-284h284v430q0 55 -41 100q-45 41 -100 41h-569q-59 0 -101 -41q-43 -43 -43 -100v-1571z" />
<glyph unicode="g" d="M57 2h713q59 0 100 41t41 100v1428q0 59 -41 100t-100 41h-569q-61 0 -101 -41q-43 -41 -43 -100v-713q0 -59 43 -102q41 -41 101 -41h426v-426h-285v284h-285v-571zM342 999v426h285v-426h-285z" />
<glyph unicode="h" d="M57 2h285v713h285v-713h284v1710h-284v-713h-285v713h-285v-1710z" />
<glyph unicode="i" d="M57 2h854v287h-284v1136h284v287h-854v-287h285v-1136h-285v-287z" />
<glyph unicode="j" d="M57 143q0 -61 43 -100q39 -41 101 -41h569q59 0 100 41t41 100v1141v428h-284v-1423h-285v284h-285v-430z" />
<glyph unicode="k" d="M51 2h285v1710h-285v-1710zM340 836l281 -834h284l-299 823l314 883h-277z" />
<glyph unicode="l" d="M57 2h854v571h-284v-284h-285v1423h-285v-1710z" />
<glyph unicode="m" d="M57 -4h285v856l143 -143l142 143v-856h284v1569q0 59 -41 100q-43 43 -100 43h-143l-142 -571l-143 571h-141q-61 0 -101 -43q-43 -41 -43 -100v-1569z" />
<glyph unicode="n" d="M57 -4h285v856l281 -856h288v1569q0 59 -41 100q-43 43 -100 43h-137v-1012l-291 1012h-141q-61 0 -101 -43q-43 -41 -43 -100v-1569z" />
<glyph unicode="o" d="M57 537q16 -29 21.5 -57.5t30.5 -55.5q12 -12 24 -19.5t26.5 -11.5t29 -10t30.5 -18h133v-123h-284v-246h284h275h276v237h-276v132h133q80 41 104 71q29 38 47 101v673q-18 37 -30.5 57.5t-40.5 45.5q-27 27 -49.5 42t-59.5 25q-20 4 -49 4q-27 0 -44 -2t-20 -2v113h285 v215h-825v-215h284v-113h-124q-2 -2 -20.5 -11t-45.5 -25.5t-43 -34.5q-18 -18 -34.5 -48t-26 -49.5t-11.5 -21.5v-653zM342 602v541h285v-541h-285z" />
<glyph unicode="p" d="M57 6h285v715h428q59 0 100 41t41 100v713q0 57 -41 102q-45 41 -100 41h-713v-1712zM342 1004v428h285v-428h-285z" />
<glyph unicode="q" d="M57 168q0 -70 52 -121q49 -49 120 -49h256v-287h285v289q59 8 102 57q39 48 39 111v1372q0 72 -49 121q-49 51 -121 51h-512q-72 0 -120 -51q-51 -51 -52 -121v-1372zM342 283v1142h285v-1142h-285z" />
<glyph unicode="r" d="M57 -4h285v713l285 -713h284l-284 713h143q57 0 100 43q41 41 41 100v713q0 59 -41 100q-43 43 -100 43h-713v-1712zM342 993v428h285v-428h-285z" />
<glyph unicode="s" d="M57 0h701q4 0 23.5 5t49.5 16.5t46 29.5q12 14 20 40t11 42.5t3 18.5v135l-514 1138h230v-284h284v571h-690q-4 0 -23.5 -1t-50 -9t-47.5 -25q-14 -14 -24 -37.5t-14.5 -39t-4.5 -17.5v-158l527 -1138h-242v284h-285v-571z" />
<glyph unicode="t" d="M57 1176h285v249h285v-426v-284v-715h284v1712h-854v-536z" />
<glyph unicode="u" d="M57 143q0 -59 43 -102q41 -41 101 -41h569q53 0 98 39q43 39 43 96v1577h-284v-1425h-285v1425h-285v-1569z" />
<glyph unicode="v" d="M57 1712l285 -1712h285l284 1712h-284l-142 -1141l-143 1141h-285z" />
<glyph unicode="w" d="M57 0h285l143 571l142 -571h284v1712h-284v-856l-142 143l-143 -143v856h-285v-1712z" />
<glyph unicode="x" d="M68 110q-1 -7 -1 -13q0 -12 3 -23q6 -20 26.5 -40t37 -30t18.5 -12h59h98l37 94l139 377l140 -377l37 -94h98h59q2 2 18.5 12t37 30t24.5 40q3 11 3 23q0 6 -1 13l-2 21v33l-53 131l-174 448l-43 111l43 107l223 569l4 14v31l2 21q1 7 1 14q0 13 -3 24q-4 20 -24.5 40 t-37 29t-18.5 11h-59l-68 -6l-67 -88l-140 -365l-139 365l-37 94h-98h-59q-2 -2 -18.5 -11t-37 -28.5t-26.5 -40.5q-3 -11 -3 -24q0 -7 1 -14l2 -21v-31l8 -18l186 -565l47 -111l-37 -117l-196 -551l-8 -18v-33z" />
<glyph unicode="y" d="M55 727h588v-436h-567v-285h649h188v1712h-284v-714h-283v714h-291v-991z" />
<glyph unicode="z" d="M57 6h854v572h-284v-285h-252l536 1137v288h-854v-571h285v283h254l-539 -1137v-287z" />
<glyph unicode="&#xac;" horiz-adv-x="1607" d="M92 162h133v-99h-129v-63h148h43v385h-66v-160h-63v160h-66v-223zM92 1661h66v41h67v-41h62v387h-66h-71l-58 -283v-104zM94 416h193v65l-129 256h63v-65h66v129h-193v-64l127 -256h-63v64h-64v-129zM94 831h64v193l32 -33l31 33v-193h66v353q0 12 -11 22q-8 10 -22 11 h-33l-31 -130l-32 130h-31q-14 0 -25 -11q-8 -8 -8 -22v-353zM94 1247h160q14 0 22 8q11 11 11 23v321q0 12 -10.5 22.5t-22.5 10.5h-127q-10 0 -25 -10q-8 -8 -8 -23v-159q0 -14 8 -23q14 -10 25 -10h94v-96h-63v63h-64v-127zM158 1470v97h63v-97h-63zM158 1765l41 234h22 v-234h-63zM340 0h192v129h-65v-63h-64l129 256v63h-192v-127h63v64h64l-127 -256v-66zM340 680h63v57h64v-96v-66v-159h65v385h-192v-121zM340 831h63v193l64 -193h65v353q0 12 -10 22q-8 10 -22 11h-31v-228l-66 228h-32q-14 0 -23 -11q-8 -8 -8 -22v-353zM340 1247h63v160 h64v-160h65v385h-65v-162h-64v162h-63v-385zM340 1661h160q12 0 22 10.5t10 22.5v164q-4 16 -8 22q-6 8 -18 8h-103v99h115h12v61h-12h-178v-387zM403 1726v97h64v-97h-64zM584 952q6 -12 14 -20q4 -4 9 -8t14 -11h28v-26h-63v-56h63h64h61v54h-61v28h28q16 8 25 17 q8 12 10 22v152q-10 20 -16 24q-4 4 -25 15h-24v26h63v48h-186v-48h65v-26h-28q-20 -10 -25 -17q-6 -6 -16 -26v-148zM586 0h192v66h-65v256v63h-127v-63h63v-256h-63v-66zM586 449q0 -14 8 -23q10 -10 22 -10h129q14 0 23 8q10 10 10 22v355h-65v-320h-64v320h-63v-352z M586 1247h192v64h-65v256h65v65h-192v-65h63v-256h-63v-64zM586 1694q0 -14 8 -23q10 -10 22 -10h129q12 0 22.5 10.5t10.5 22.5v96h-65v-64h-64v256h64v-63h65v96q0 12 -10 22.5t-23 10.5h-129q-12 0 -22 -10q-8 -8 -8 -23v-321zM647 969v121h66v-121h-66zM831 33 q0 -14 9 -23q10 -10 22 -10h129q12 0 22.5 10.5t10.5 22.5v96h-66v-63h-63v100h57h72v92v96q0 12 -10 23q-8 8 -23 8h-129q-14 0 -22.5 -8t-8.5 -23v-32h64h63v-64v-37h-127v-188zM831 801l64 -385h63l66 385h-66l-30 -256l-33 256h-64zM831 831h64v160h96q12 0 22.5 10.5 t10.5 22.5v160q0 12 -10 22q-8 10 -23 11h-160v-386zM831 1278q0 -14 8.5 -22.5t22.5 -8.5h129q14 0 23 8q10 11 10 23v258v96h-66v-321h-63v63h-64v-96zM831 1661h142q27 10 33 16t16 33v287q-6 27 -14 35q-6 10 -31 16h-146v-387zM895 1057v94h63v-94h-63zM895 1726v256 h63v-256h-63zM1077 33q0 -14 8 -23q10 -10 23 -10h129q12 0 22.5 10.5t10.5 22.5v321q0 12 -10 23q-8 8 -23 8h-129q-14 0 -22.5 -8t-8.5 -23v-96h64v64h63v-101h-57v-55h57v-100h-63v63h-64v-96zM1077 416h64l33 129l30 -129h66v385h-33v30q10 0 23 13q10 14 10 24v310 q0 16 -13 28q-14 10 -26 11h-117q-12 0 -27 -11q-10 -10 -10 -28v-310q0 -16 10.5 -26.5t26.5 -10.5h60v-65h30v-158l-30 33l-33 -33v193h-64v-385zM1077 1247h64v385h-64v-385zM1077 1694q0 -14 8 -23q10 -10 23 -10h129q12 0 22.5 10.5t10.5 22.5v96h-66v-64h-63v101h57 v55h-57v100h63v-63h66v96q0 12 -10.5 22.5t-22.5 10.5h-129q-12 0 -23 -10q-8 -8 -8 -23v-321zM1141 895v256h63v-256h-63zM1141 1434l63 -187h66l-68 185l70 198h-62zM1321 41h35h28h70v-41h59v387h-63v-49v-234h-66v283h-63v-346zM1323 831h63v160l64 -160h63l-63 160h33 q12 0 22 10q8 8 8 23v160q0 14 -8 22q-8 10 -22 11h-160v-386zM1323 1247h190v127h-63v-63h-64v321h-63v-385zM1323 1661h63v65v101h58v55h-58v100h64v-63h63v96q0 14 -8 23q-10 10 -22 10h-129q-12 0 -23 -10q-8 -8 -8 -23v-354zM1327 438l16 -18h15h22l9 22l30 82l33 -82 l8 -22h21h14l18 18v13v8l-12 28l-39 99h43q8 4 8 22q0 20 -6 27h-45l49 129l2 4v6v12l-18 19h-14l-15 2l-14 -23l-33 -82l-30 82l-9 21h-22h-15l-16 -19v-12v-6v-4l43 -129h-35q-4 -2 -8 -25q0 -18 4 -26h41l-45 -121v-4v-8v-13zM1386 1057v94h64v-94h-64z" />
<glyph unicode="&#xc4;" d="M55 -6h285v180h303v-180h270v1716h-288h-318l-252 -1251v-465zM340 459l190 1034h95v-1034h-285zM424 1763h356v217h-356v-217z" />
<glyph unicode="&#xd6;" d="M57 168q0 -70 52 -121q27 -29 56.5 -39t63.5 -10h256v-8h285v10q59 8 102 57q39 48 39 111v1372q0 72 -49 121q-49 51 -121 51h-512q-72 0 -120 -51q-51 -51 -52 -121v-1372zM305 1763h357v217h-357v-217zM342 283v1142h285v-1142h-285z" />
<glyph unicode="&#xdc;" d="M57 143q0 -59 43 -102q41 -41 101 -41h569q53 0 98 39q43 39 43 96v1577h-284v-1425h-285v1425h-285v-1569zM317 1763h355v217h-355v-217z" />
<glyph unicode="&#xe4;" d="M55 -6h285v180h303v-180h270v1716h-288h-318l-252 -1251v-465zM340 459l190 1034h95v-1034h-285zM424 1763h356v217h-356v-217z" />
<glyph unicode="&#xf6;" d="M57 168q0 -70 52 -121q27 -29 56.5 -39t63.5 -10h256v-8h285v10q59 8 102 57q39 48 39 111v1372q0 72 -49 121q-49 51 -121 51h-512q-72 0 -120 -51q-51 -51 -52 -121v-1372zM305 1763h357v217h-357v-217zM342 283v1142h285v-1142h-285z" />
<glyph unicode="&#xfc;" d="M57 143q0 -59 43 -102q41 -41 101 -41h569q53 0 98 39q43 39 43 96v1577h-284v-1425h-285v1425h-285v-1569zM317 1763h355v217h-355v-217z" />
<glyph unicode="&#x2000;" horiz-adv-x="1024" />
<glyph unicode="&#x2001;" horiz-adv-x="2048" />
<glyph unicode="&#x2002;" horiz-adv-x="1024" />
<glyph unicode="&#x2003;" horiz-adv-x="2048" />
<glyph unicode="&#x2004;" horiz-adv-x="682" />
<glyph unicode="&#x2005;" horiz-adv-x="512" />
<glyph unicode="&#x2006;" horiz-adv-x="341" />
<glyph unicode="&#x2007;" horiz-adv-x="341" />
<glyph unicode="&#x2008;" horiz-adv-x="256" />
<glyph unicode="&#x2009;" horiz-adv-x="409" />
<glyph unicode="&#x200a;" horiz-adv-x="113" />
<glyph unicode="&#x202f;" horiz-adv-x="409" />
<glyph unicode="&#x205f;" horiz-adv-x="512" />
<glyph unicode="&#xe000;" horiz-adv-x="1710" d="M0 0v1710h1710v-1710h-1710z" />
</font>
</defs>
</svg>
